<svg xmlns="http://www.w3.org/2000/svg" viewBox="0 0 900 900" font-family="-apple-system, BlinkMacSystemFont, 'Segoe UI', system-ui, sans-serif">
  <defs>
    <marker id="ar3" viewBox="0 0 10 10" refX="8" refY="5" markerWidth="7" markerHeight="7" orient="auto">
      <path d="M2 1L8 5L2 9" fill="none" stroke="#64748b" stroke-width="1.5"/>
    </marker>
    <marker id="ar3-red" viewBox="0 0 10 10" refX="8" refY="5" markerWidth="7" markerHeight="7" orient="auto">
      <path d="M2 1L8 5L2 9" fill="none" stroke="#dc2626" stroke-width="1.5"/>
    </marker>
  </defs>

  <rect width="900" height="900" fill="#fafafa"/>

  <!-- title -->
  <text x="40" y="46" font-size="24" font-weight="700" fill="#1e293b">03 · The 11-step adjudication pipeline</text>
  <text x="40" y="72" font-size="14" fill="#64748b">Pure functions, in this exact order. Each step can short-circuit with a reason. Order is not negotiable.</text>

  <!-- input -->
  <g>
    <rect x="280" y="100" width="340" height="60" rx="8" fill="#6366f1"/>
    <text x="450" y="124" font-size="14" font-weight="600" fill="#ffffff" text-anchor="middle">INPUT</text>
    <text x="450" y="146" font-size="12" font-family="monospace" fill="#e0e7ff" text-anchor="middle">(line_item, policy, accumulator)</text>
  </g>

  <!-- steps -->
  <g font-family="-apple-system, BlinkMacSystemFont, 'Segoe UI', system-ui, sans-serif">
    <!-- 01 -->
    <rect x="40" y="190" width="500" height="48" rx="6" fill="#fff" stroke="#cbd5e1" stroke-width="1.5"/>
    <circle cx="68" cy="214" r="16" fill="#6366f1"/>
    <text x="68" y="219" font-size="12" font-weight="700" fill="#ffffff" text-anchor="middle">01</text>
    <text x="96" y="208" font-size="13" font-weight="600" fill="#1e293b">isPolicyActive(claim.date, policy.period)</text>
    <text x="96" y="226" font-size="11" fill="#64748b">check if policy is in force on the claim date</text>
    <rect x="560" y="200" width="300" height="28" rx="6" fill="#fee2e2"/>
    <text x="710" y="219" font-size="11" font-weight="600" fill="#991b1b" text-anchor="middle" font-family="monospace">→ POLICY_NOT_ACTIVE · payable=0</text>

    <!-- 02 -->
    <rect x="40" y="246" width="500" height="48" rx="6" fill="#fff" stroke="#cbd5e1" stroke-width="1.5"/>
    <circle cx="68" cy="270" r="16" fill="#6366f1"/>
    <text x="68" y="275" font-size="12" font-weight="700" fill="#ffffff" text-anchor="middle">02</text>
    <text x="96" y="264" font-size="13" font-weight="600" fill="#1e293b">findRule(line_item.service_type, policy.rules)</text>
    <text x="96" y="282" font-size="11" fill="#64748b">match the service to a coverage rule</text>
    <rect x="560" y="256" width="300" height="28" rx="6" fill="#fee2e2"/>
    <text x="710" y="275" font-size="11" font-weight="600" fill="#991b1b" text-anchor="middle" font-family="monospace">→ NO_COVERAGE · payable=0</text>

    <!-- 03 -->
    <rect x="40" y="302" width="500" height="48" rx="6" fill="#fff" stroke="#cbd5e1" stroke-width="1.5"/>
    <circle cx="68" cy="326" r="16" fill="#6366f1"/>
    <text x="68" y="331" font-size="12" font-weight="700" fill="#ffffff" text-anchor="middle">03</text>
    <text x="96" y="320" font-size="13" font-weight="600" fill="#1e293b">checkCovered(rule.covered)</text>
    <text x="96" y="338" font-size="11" fill="#64748b">explicit exclusion check</text>
    <rect x="560" y="312" width="300" height="28" rx="6" fill="#fee2e2"/>
    <text x="710" y="331" font-size="11" font-weight="600" fill="#991b1b" text-anchor="middle" font-family="monospace">→ EXCLUDED · payable=0</text>

    <!-- 04 -->
    <rect x="40" y="358" width="500" height="48" rx="6" fill="#fff" stroke="#cbd5e1" stroke-width="1.5"/>
    <circle cx="68" cy="382" r="16" fill="#6366f1"/>
    <text x="68" y="387" font-size="12" font-weight="700" fill="#ffffff" text-anchor="middle">04</text>
    <text x="96" y="376" font-size="13" font-weight="600" fill="#1e293b">checkPriorAuth(rule, line_item.prior_auth_id)</text>
    <text x="96" y="394" font-size="11" fill="#64748b">gate on authorization presence</text>
    <rect x="560" y="368" width="300" height="28" rx="6" fill="#fef3c7"/>
    <text x="710" y="387" font-size="11" font-weight="600" fill="#92400e" text-anchor="middle" font-family="monospace">→ PRIOR_AUTH_REQUIRED · NEEDS_REVIEW</text>

    <!-- 05 -->
    <rect x="40" y="414" width="500" height="48" rx="6" fill="#fff" stroke="#cbd5e1" stroke-width="1.5"/>
    <circle cx="68" cy="438" r="16" fill="#6366f1"/>
    <text x="68" y="443" font-size="12" font-weight="700" fill="#ffffff" text-anchor="middle">05</text>
    <text x="96" y="432" font-size="13" font-weight="600" fill="#1e293b">checkLimit(accumulator, rule.limit)</text>
    <text x="96" y="450" font-size="11" fill="#64748b">read accumulator, detect limit-reached or straddle</text>
    <rect x="560" y="424" width="300" height="28" rx="6" fill="#fee2e2"/>
    <text x="710" y="443" font-size="11" font-weight="600" fill="#991b1b" text-anchor="middle" font-family="monospace">→ LIMIT_EXCEEDED · payable=0 or partial</text>

    <!-- divider -->
    <line x1="40" y1="480" x2="860" y2="480" stroke="#cbd5e1" stroke-dasharray="3 3"/>
    <text x="450" y="500" font-size="11" font-weight="700" fill="#64748b" text-anchor="middle" letter-spacing="1">↓  IF WE GET HERE, THE LINE WILL PAY SOMETHING — NOW WE COMPUTE THE SPLIT  ↓</text>

    <!-- 06 -->
    <rect x="40" y="514" width="500" height="48" rx="6" fill="#fff" stroke="#14b8a6" stroke-width="1.5"/>
    <circle cx="68" cy="538" r="16" fill="#14b8a6"/>
    <text x="68" y="543" font-size="12" font-weight="700" fill="#ffffff" text-anchor="middle">06</text>
    <text x="96" y="532" font-size="13" font-weight="600" fill="#1e293b">computeBasePayable(line_item, rule)</text>
    <text x="96" y="550" font-size="11" fill="#64748b">billed × units, capped at (limit − accumulator)</text>
    <rect x="560" y="524" width="300" height="28" rx="6" fill="#e0e7ff"/>
    <text x="710" y="543" font-size="11" font-weight="600" fill="#3730a3" text-anchor="middle" font-family="monospace">base = $200</text>

    <!-- 07 -->
    <rect x="40" y="570" width="500" height="48" rx="6" fill="#fff" stroke="#14b8a6" stroke-width="1.5"/>
    <circle cx="68" cy="594" r="16" fill="#14b8a6"/>
    <text x="68" y="599" font-size="12" font-weight="700" fill="#ffffff" text-anchor="middle">07</text>
    <text x="96" y="588" font-size="13" font-weight="600" fill="#1e293b">applyDeductible(base, policy.deductible_remaining)</text>
    <text x="96" y="606" font-size="11" fill="#64748b">subtract member's deductible share</text>
    <rect x="560" y="580" width="300" height="28" rx="6" fill="#e0e7ff"/>
    <text x="710" y="599" font-size="11" font-weight="600" fill="#3730a3" text-anchor="middle" font-family="monospace">+ DEDUCTIBLE_APPLIED ($50)</text>

    <!-- 08 -->
    <rect x="40" y="626" width="500" height="48" rx="6" fill="#fff" stroke="#14b8a6" stroke-width="1.5"/>
    <circle cx="68" cy="650" r="16" fill="#14b8a6"/>
    <text x="68" y="655" font-size="12" font-weight="700" fill="#ffffff" text-anchor="middle">08</text>
    <text x="96" y="644" font-size="13" font-weight="600" fill="#1e293b">applyCopay(base, rule.copay_cents)</text>
    <text x="96" y="662" font-size="11" fill="#64748b">subtract fixed copay</text>
    <rect x="560" y="636" width="300" height="28" rx="6" fill="#e0e7ff"/>
    <text x="710" y="655" font-size="11" font-weight="600" fill="#3730a3" text-anchor="middle" font-family="monospace">+ COPAY_APPLIED ($20)</text>

    <!-- 09 -->
    <rect x="40" y="682" width="500" height="48" rx="6" fill="#fff" stroke="#14b8a6" stroke-width="1.5"/>
    <circle cx="68" cy="706" r="16" fill="#14b8a6"/>
    <text x="68" y="711" font-size="12" font-weight="700" fill="#ffffff" text-anchor="middle">09</text>
    <text x="96" y="700" font-size="13" font-weight="600" fill="#1e293b">applyCoinsurance(base, rule.coinsurance_pct)</text>
    <text x="96" y="718" font-size="11" fill="#64748b">subtract percentage of the remainder</text>
    <rect x="560" y="692" width="300" height="28" rx="6" fill="#e0e7ff"/>
    <text x="710" y="711" font-size="11" font-weight="600" fill="#3730a3" text-anchor="middle" font-family="monospace">+ COINSURANCE_APPLIED ($26)</text>

    <!-- 10 -->
    <rect x="40" y="738" width="500" height="48" rx="6" fill="#fff" stroke="#14b8a6" stroke-width="1.5"/>
    <circle cx="68" cy="762" r="16" fill="#14b8a6"/>
    <text x="68" y="767" font-size="12" font-weight="700" fill="#ffffff" text-anchor="middle">10</text>
    <text x="96" y="756" font-size="13" font-weight="600" fill="#1e293b">capAtOopMax(policy.oop_max, accumulator.member_oop)</text>
    <text x="96" y="774" font-size="11" fill="#64748b">if member would exceed OOP max, insurer pays 100% from here</text>
    <rect x="560" y="748" width="300" height="28" rx="6" fill="#e0e7ff"/>
    <text x="710" y="767" font-size="11" font-weight="600" fill="#3730a3" text-anchor="middle" font-family="monospace">+ OOP_MAX_REACHED (if applicable)</text>

    <!-- 11 -->
    <rect x="40" y="794" width="500" height="48" rx="6" fill="#fff" stroke="#14b8a6" stroke-width="1.5"/>
    <circle cx="68" cy="818" r="16" fill="#14b8a6"/>
    <text x="68" y="823" font-size="12" font-weight="700" fill="#ffffff" text-anchor="middle">11</text>
    <text x="96" y="812" font-size="13" font-weight="600" fill="#1e293b">writeAccumulator(accumulator, payable)</text>
    <text x="96" y="830" font-size="11" fill="#64748b">single atomic write — same step every time</text>
    <rect x="560" y="804" width="300" height="28" rx="6" fill="#ccfbf1"/>
    <text x="710" y="823" font-size="11" font-weight="600" fill="#0f766e" text-anchor="middle" font-family="monospace">= APPROVED · payable=$104</text>
  </g>

  <!-- footer -->
  <text x="40" y="876" font-size="12" fill="#64748b" font-style="italic">Steps 1-5 can short-circuit. Steps 6-11 are arithmetic. Each step is a pure function. Each reason code has one test.</text>
</svg>
